<?xml version="1.0" encoding="UTF-8"?>
<svg xmlns="http://www.w3.org/2000/svg" xmlns:xlink="http://www.w3.org/1999/xlink" width="100pt" height="100pt" viewBox="0 0 100 100" version="1.1">
<g id="surface447336">
<path style=" stroke:none;fill-rule:nonzero;fill:rgb(18.039216%,80.000001%,44.313726%);fill-opacity:1;" d="M 39.0625 3.125 C 29.585938 3.125 21.875 10.835938 21.875 20.3125 C 21.875 25.492188 24.1875 30.136719 27.824219 33.289062 C 22.429688 36.191406 18.75 41.890625 18.75 48.4375 C 18.75 54.253906 21.660156 59.386719 26.09375 62.5 C 21.660156 65.613281 18.75 70.746094 18.75 76.5625 C 18.75 86.039062 26.460938 93.75 35.9375 93.75 C 45.414062 93.75 53.125 86.039062 53.125 76.5625 L 53.125 37.5 L 64.0625 37.5 C 73.539062 37.5 81.25 29.789062 81.25 20.3125 C 81.25 10.835938 73.539062 3.125 64.0625 3.125 Z M 39.0625 9.375 L 64.0625 9.375 C 70.09375 9.375 75 14.28125 75 20.3125 C 75 26.34375 70.09375 31.25 64.0625 31.25 L 39.0625 31.25 C 33.03125 31.25 28.125 26.34375 28.125 20.3125 C 28.125 14.28125 33.03125 9.375 39.0625 9.375 Z M 35.9375 37.5 L 46.875 37.5 L 46.875 59.375 L 35.9375 59.375 C 29.90625 59.375 25 54.46875 25 48.4375 C 25 42.40625 29.90625 37.5 35.9375 37.5 Z M 65.625 37.5 C 58.722656 37.5 53.125 43.097656 53.125 50 C 53.125 56.902344 58.722656 62.5 65.625 62.5 C 72.527344 62.5 78.125 56.902344 78.125 50 C 78.125 43.097656 72.527344 37.5 65.625 37.5 Z M 35.9375 65.625 L 46.875 65.625 L 46.875 76.5625 C 46.875 82.59375 41.96875 87.5 35.9375 87.5 C 29.90625 87.5 25 82.59375 25 76.5625 C 25 70.53125 29.90625 65.625 35.9375 65.625 Z M 35.9375 65.625 "/>
</g>
</svg>
